<svg id="Layer_1" data-name="Layer 1" xmlns="http://www.w3.org/2000/svg" viewBox="0 0 39.62 31.07" preserveAspectRatio="xMinYMid"><defs><style>.cls-1{fill:#186290;fill-rule:evenodd;}</style></defs><title>логотип2</title><path class="cls-1" d="M1.88,29.64l1-3.25L6,26.44l2-.1,2-.58,1-.92.72-1.31.83-3.06c1.31-4.51,2.58-9,4-13.53l.78-1.46,1-1.21L19.59,3.2l1.31-.73L22.5,2c5-.28,10-.12,15-.1L36.37,5.38l-13.43.1a3.24,3.24,0,0,0-1.89.73,8,8,0,0,0-1.61,3.25L15.18,24l-.83,2-.92,1.21-1.26,1.07-1.46.92-1.31.44-1.79.05-5.73-.05m12.57-.15L20,9.46l.43-1.36L21,7.33c.22-.23.45-.46.68-.68A3.9,3.9,0,0,1,23.71,6H36.08l-1,3.49h-9.8l-1,0c-.15.11-.3.22-.44.34s-.23.45-.34.68l-.24.77-1.6,5.82h11.2L32,20.52H22.74l-1.11.29-.78.53-.73.68-.34,1.17-1.84,6.35Zm15.88,1.05H.71L7.31,7.48C9,2.65,12.49.54,17.49.54H38.92Zm.4.53H0L6.8,7.31C8.52,2.27,12.26,0,17.49,0H39.62Z"/></svg>