<svg width="352" height="48" viewBox="0 0 352 48" fill="none" xmlns="http://www.w3.org/2000/svg">
<g clip-path="url(#clip0_1220_2)">
<path fill-rule="evenodd" clip-rule="evenodd" d="M2.88663 45.5106L4.42208 40.5204L9.21266 40.5971L12.2836 40.4436L15.3544 39.553L16.8899 38.1404L17.9954 36.129L19.2698 31.4305C21.2813 24.5057 23.2313 17.6115 25.4116 10.656L26.6092 8.41423L28.1447 6.55635L30.0794 4.91342L32.0908 3.79255L34.5475 3.07089C42.2247 2.64096 49.9019 2.88663 57.5792 2.91734L55.8441 8.26069L35.2231 8.41423C34.1608 8.46802 33.1437 8.86086 32.3211 9.53511C31.1259 10.9873 30.2802 12.6946 29.849 14.5253L23.308 36.8507L22.0336 39.9215L20.621 41.7794L18.6864 43.4224L16.4446 44.835L14.4332 45.5106L11.6847 45.5873L2.88663 45.5106ZM22.1872 45.2802L30.7089 14.5253L31.3691 12.4371L32.2443 11.2548C32.5821 10.9017 32.9353 10.5485 33.2884 10.2107C34.2146 9.59504 35.2939 9.24945 36.4054 9.21266H55.3988L53.8634 14.5714H38.816H37.2806C37.0503 14.7403 36.82 14.9092 36.605 15.0934C36.39 15.2777 36.2518 15.7844 36.0829 16.1375L35.7144 17.3198L33.2577 26.2561H50.4547L49.1342 31.5073H34.916L33.2117 31.9526L32.014 32.7664L30.8931 33.8105L30.3711 35.6069L27.5459 45.357L22.1872 45.2802ZM46.57 46.8925H1.09017L11.2241 11.4851C13.819 4.06893 19.1777 0.82914 26.8549 0.82914H59.7595L46.57 46.8925ZM47.1842 47.7062H0L10.441 11.2241C13.082 3.48546 18.8245 0 26.8549 0H60.8343L47.1842 47.7062Z" fill="#2C8FC6"/>
</g>
<g clip-path="url(#clip1_1220_2)">
<path fill-rule="evenodd" clip-rule="evenodd" d="M321.506 6.66317L317.422 31.5067H347.962L352.046 6.66317H344.814L341.743 25.5031H337.214L340.285 6.66317H333.053L329.982 25.5031H325.59L328.661 6.66317H321.414M301.3 15.1695C301.559 14.209 302.093 13.3447 302.835 12.6821C303.569 12.0729 304.492 11.7365 305.445 11.7301C305.915 11.7012 306.385 11.7883 306.814 11.9838C307.242 12.1792 307.616 12.4771 307.902 12.851C308.351 13.575 308.53 14.4339 308.409 15.277C308.412 15.5975 308.376 15.9172 308.301 16.229H302.513L301.638 21.4956H307.779C307.689 22.5784 307.359 23.6275 306.812 24.5665C306.472 25.1311 305.986 25.5933 305.405 25.9042C304.824 26.215 304.169 26.3629 303.511 26.3322C302.961 26.3795 302.408 26.2776 301.91 26.0371C301.413 25.7966 300.99 25.4265 300.686 24.9657C300.365 24.3238 300.216 23.6094 300.256 22.8928L293.362 23.5531C293.362 27.3456 295.112 31.9212 302.927 31.9212C305.082 32.0646 307.234 31.6082 309.145 30.6026C311.056 29.5971 312.65 28.0817 313.752 26.2247C315.319 23.274 316.097 19.9681 316.009 16.6282C316.122 15.1003 315.891 13.5666 315.333 12.1397C314.775 10.7129 313.904 9.42916 312.785 8.38287C310.828 6.94868 308.437 6.23288 306.014 6.35608C303.022 6.20788 300.077 7.14579 297.722 8.99705C296.037 10.3814 294.842 12.2709 294.313 14.3865L301.3 15.1695ZM275.996 6.66317L275.627 8.82815C275.167 11.7301 274.767 13.2502 274.215 15.9065C273.842 18.1163 273.261 20.2859 272.479 22.3861C272.265 23.3188 271.765 24.1615 271.05 24.7971C270.334 25.4327 269.439 25.8297 268.487 25.933L267.551 31.6909C268.101 31.8062 268.662 31.8679 269.224 31.8752C271.203 31.9022 273.118 31.1779 274.583 29.8484C276.218 28.2543 277.445 26.2898 278.161 24.1212C279.325 20.7208 280.223 17.2351 280.848 13.6955L281.063 12.4518H285.116L282.045 31.5067H289.723L293.776 6.66317H275.996ZM258.138 13.4038C258.735 13.3889 259.325 13.5375 259.843 13.8337C260.378 14.2641 260.798 14.8202 261.066 15.4525C261.334 16.0848 261.441 16.7735 261.378 17.4573C261.378 18.9734 261.003 20.466 260.288 21.8027C259.877 22.4499 259.31 22.984 258.64 23.3567C257.969 23.7294 257.216 23.9289 256.449 23.9369L258.138 13.4038ZM249.294 23.8601C248.706 23.9365 248.109 23.809 247.604 23.4989C247.098 23.1888 246.714 22.7148 246.515 22.1558C246.206 21.3862 246.069 20.558 246.116 19.7298C246.104 18.7432 246.29 17.7642 246.665 16.8514C247.04 15.9386 247.594 15.1107 248.296 14.4172C249.067 13.7771 250.043 13.4388 251.045 13.4652L249.294 23.8601ZM251.981 5.94151L251.582 8.475C248.448 8.22551 245.338 9.1872 242.891 11.162C241.632 12.2477 240.631 13.6011 239.961 15.1233C239.292 16.6455 238.971 18.298 239.022 19.9601C238.942 21.2593 239.146 22.5605 239.621 23.7725C240.095 24.9845 240.829 26.0782 241.771 26.9771C243.641 28.3558 245.929 29.0496 248.25 28.9425L247.82 31.5834H255.497L255.897 29.0192C259.036 29.2338 262.144 28.2764 264.618 26.3322C265.865 25.2441 266.855 23.8939 267.519 22.3782C268.182 20.8625 268.503 19.2188 268.457 17.5648C268.57 16.2506 268.386 14.9277 267.918 13.6943C267.45 12.4609 266.711 11.3487 265.754 10.4404C263.874 9.06952 261.584 8.37669 259.259 8.475L259.659 6.01829L251.981 5.94151ZM226.309 11.7301C226.748 11.6984 227.189 11.774 227.593 11.9506C227.997 12.1271 228.352 12.3992 228.627 12.7435C229.155 13.5651 229.407 14.5329 229.349 15.5073C229.349 17.7798 228.597 23.1846 227.061 25.0578C226.77 25.4678 226.379 25.7961 225.924 26.0112C225.47 26.2263 224.968 26.321 224.466 26.2862C223.88 26.3215 223.297 26.1754 222.797 25.8677C222.297 25.56 221.904 25.1056 221.672 24.5665C221.394 23.9113 221.258 23.205 221.272 22.4936C221.272 20.2519 221.994 14.7089 223.806 12.7896C224.121 12.4415 224.508 12.1663 224.94 11.9833C225.373 11.8003 225.84 11.7139 226.309 11.7301ZM226.923 6.31002C223.746 6.16507 220.639 7.26705 218.263 9.38091C216.649 10.902 215.384 12.7547 214.554 14.8116C213.724 16.8685 213.35 19.0807 213.457 21.296C213.364 23.9493 214.237 26.5463 215.914 28.6047C216.846 29.7155 218.027 30.5907 219.361 31.159C220.695 31.7273 222.144 31.9727 223.591 31.8752C225.674 31.9605 227.746 31.5284 229.622 30.6174C231.498 29.7064 233.118 28.3449 234.339 26.6547C236.201 23.7391 237.182 20.3484 237.164 16.8892C237.243 15.3872 237.011 13.8852 236.482 12.477C235.954 11.0688 235.141 9.78482 234.093 8.70531C232.115 6.98864 229.536 6.12717 226.923 6.31002ZM199.546 12.0986H202.479C203.103 12.0481 203.727 12.1987 204.26 12.5286C204.51 12.6944 204.712 12.9241 204.845 13.1941C204.977 13.464 205.035 13.7643 205.012 14.064C205.017 14.4689 204.933 14.8699 204.766 15.2387C204.599 15.6075 204.352 15.9351 204.045 16.1983C203.361 16.6965 202.525 16.9408 201.68 16.8892H198.747L199.546 12.0986ZM192.882 6.66317L188.752 31.5067H196.429L197.964 22.5243H201.035C203.795 22.7613 206.557 22.0871 208.897 20.605C210.061 19.7693 211.014 18.6735 211.681 17.4047C212.347 16.1359 212.708 14.7292 212.735 13.2963C212.773 12.3223 212.578 11.3534 212.167 10.4696C211.756 9.58589 211.14 8.8127 210.371 8.21397C208.602 7.09958 206.531 6.56297 204.444 6.67853L192.882 6.66317ZM172.568 6.66317L171.585 12.4518H176.683L173.612 31.5067H181.289L184.36 12.4518H189.504L190.471 6.66317H172.568ZM149.537 6.66317L145.452 31.5067H153.129L154.68 21.4956H155.371C155.83 21.436 156.296 21.4691 156.742 21.5931C157.188 21.7171 157.604 21.9293 157.966 22.2172C158.644 23.1541 158.999 24.2855 158.979 25.4417C159.21 27.2535 159.317 28.4204 159.532 29.4645C159.644 30.2101 159.957 30.911 160.438 31.4913H167.67C166.959 29.7222 166.534 27.8511 166.411 25.9484C166.237 24.371 165.861 22.8228 165.29 21.342C164.983 20.6081 164.503 19.9593 163.891 19.4513C163.278 18.9433 162.552 18.591 161.774 18.4247V18.2865C162.557 18.1111 163.304 17.8049 163.985 17.3806C165.797 16.1522 166.78 13.8183 167.854 11.8069C169.85 8.10649 170.434 7.32341 171.156 6.66317H164.492C163.468 7.38058 162.665 8.36973 162.173 9.5191C160.361 12.851 159.824 14.3404 158.657 15.3538C158 15.9001 157.161 16.1796 156.308 16.1369H155.54L157.076 6.69388L149.537 6.66317ZM146.128 6.66317H127.411L123.311 31.5067H141.997L142.98 25.5645H131.894L132.508 21.5109H141.414L142.397 16.1522H133.46L134.075 12.4518H145.16L146.128 6.66317ZM102.091 6.66317L98.007 31.5067H105.607L108.678 12.4518H114.574L111.504 31.5067H119.104L123.173 6.66317H102.091ZM97.9763 12.0372C97.9783 8.57773 96.6667 5.24652 94.3066 2.71708C92.0241 0.802238 89.0972 -0.169757 86.1227 -0.000655089C83.8085 -0.0784363 81.5089 0.394681 79.4133 1.37973C77.3177 2.36478 75.4862 3.83357 74.0695 5.66513C71.3228 9.42078 69.8487 13.9561 69.8623 18.6089C69.7397 21.7185 70.6287 24.784 72.3958 27.3456C73.6671 28.8778 75.2785 30.0921 77.1018 30.8918C78.9251 31.6915 80.9099 32.0545 82.8983 31.9519C85.2357 32.0806 87.5637 31.5661 89.6292 30.4644C91.6947 29.3626 93.4187 27.7157 94.6137 25.7027C95.6772 24.1417 96.4713 22.4134 96.9629 20.5897L88.2723 19.4688C88.0538 20.7293 87.6007 21.9376 86.9365 23.031C86.5663 23.6701 86.0292 24.1963 85.3827 24.5534C84.7363 24.9104 84.0048 25.0848 83.2668 25.0578C82.3047 25.0694 81.3773 24.6995 80.6872 24.029C79.8684 22.9207 79.4958 21.5452 79.6431 20.1751C79.6631 18.3866 79.8429 16.6035 80.1805 14.8471C81.0097 10.2408 81.9463 8.70531 82.6679 8.01436C83.0462 7.62764 83.4975 7.3199 83.9957 7.10904C84.4939 6.89817 85.029 6.78837 85.5699 6.78601C86.3409 6.75201 87.0979 6.99968 87.6997 7.48281C88.3015 7.96594 88.707 8.65152 88.8404 9.41162C89.1475 10.5016 89.3127 11.6266 89.3318 12.7589L97.9763 12.0372ZM71.7356 45.1875C70.9013 45.1978 70.0944 44.8904 69.4785 44.3276C69.1447 44.0158 68.8846 43.6335 68.7173 43.2085C68.55 42.7835 68.4795 42.3266 68.5111 41.8709C68.4806 40.7268 68.862 39.6098 69.586 38.7232C69.9243 38.3075 70.3536 37.975 70.8408 37.7514C71.328 37.5277 71.86 37.419 72.3958 37.4335C72.8172 37.4288 73.2351 37.5109 73.6234 37.6747C74.0117 37.8384 74.3622 38.0804 74.6529 38.3855C74.9537 38.6988 75.1876 39.07 75.3407 39.4764C75.4938 39.8829 75.5628 40.3161 75.5435 40.75C75.5749 41.9011 75.1998 43.0264 74.484 43.9284C74.1528 44.3346 73.7328 44.6594 73.2563 44.8777C72.7798 45.096 72.2595 45.202 71.7356 45.1875ZM71.7356 43.4678C71.9135 43.4781 72.0908 43.4392 72.2479 43.3552C72.405 43.2712 72.5359 43.1454 72.6261 42.9918C72.8665 42.5483 73.0227 42.0642 73.0868 41.5638C73.1816 41.1497 73.2432 40.7287 73.271 40.3048C73.2913 39.996 73.1985 39.6903 73.01 39.4449C72.923 39.349 72.8161 39.2731 72.6967 39.2228C72.5774 39.1724 72.4485 39.1486 72.319 39.1532C71.7663 39.1532 71.3671 39.537 71.1521 40.3048C70.9411 40.9655 70.8273 41.6534 70.8143 42.3469C70.8143 43.0839 71.1368 43.4678 71.7509 43.4678H71.7356ZM76.0962 45.0032L77.3246 37.6331H82.6526L82.4069 39.1685H79.2593L79.0289 40.5504H80.0116C80.5288 40.5356 81.0455 40.5924 81.5471 40.7193C81.9071 40.8299 82.2238 41.0499 82.453 41.3489C82.7009 41.6741 82.826 42.0766 82.8061 42.4851C82.8073 42.9633 82.6857 43.4338 82.453 43.8516C82.2179 44.2845 81.8288 44.6133 81.3628 44.7729C80.8695 44.9464 80.3503 45.0347 79.8274 45.0339L76.0962 45.0032ZM78.4455 43.4678H79.5971C79.715 43.4807 79.8343 43.4667 79.946 43.4268C80.0577 43.3869 80.1589 43.3222 80.2419 43.2375C80.3744 43.0964 80.4461 42.9089 80.4415 42.7154C80.4415 42.2855 80.1191 42.0705 79.4589 42.0705H78.6911L78.4455 43.4678ZM93.3239 43.3756H94.1838L93.631 46.6308H92.3259L92.4027 45.0953H83.4664L84.6947 37.7252H86.7829L85.831 43.391H87.5046L88.4719 37.6331H90.5601L89.6235 43.2989H91.2818L92.2338 37.6331H94.322L93.3239 43.3756ZM100.372 43.3756L100.08 45.08H94.6137L95.842 37.7099H101.139L100.863 39.2453H97.7613L97.5771 40.3969H100.233L99.957 41.9323H97.3007L97.0858 43.2375L100.372 43.3756ZM105.868 42.2241L107.849 42.4697C107.65 43.2282 107.24 43.9148 106.667 44.4505C106.092 44.981 105.33 45.2625 104.548 45.2335C104.118 45.2474 103.691 45.1618 103.299 44.9833C102.908 44.8049 102.563 44.5384 102.291 44.2048C101.733 43.5281 101.444 42.6703 101.477 41.7941C101.451 40.6844 101.809 39.5997 102.491 38.7232C102.827 38.2901 103.265 37.9469 103.766 37.7245C104.267 37.5021 104.815 37.4074 105.362 37.4488C105.744 37.4315 106.126 37.4938 106.483 37.6318C106.84 37.7697 107.165 37.9804 107.436 38.2503C107.707 38.5202 107.92 38.8436 108.06 39.1999C108.199 39.5562 108.264 39.9376 108.248 40.3201L106.176 40.4737C106.187 40.1234 106.113 39.7757 105.961 39.4603C105.889 39.3482 105.788 39.2577 105.669 39.1982C105.55 39.1388 105.418 39.1126 105.285 39.1225C104.732 39.1225 104.364 39.537 104.164 40.3355C103.991 40.9618 103.888 41.6056 103.857 42.2548C103.857 43.0071 104.164 43.391 104.748 43.391C104.879 43.3929 105.009 43.368 105.131 43.3178C105.252 43.2677 105.362 43.1933 105.454 43.0993C105.666 42.8177 105.813 42.4925 105.884 42.1473L105.868 42.2241ZM112.532 39.3835L111.58 45.08H109.461L110.413 39.3835H108.878L109.17 37.6945H114.498L114.221 39.3835H112.532ZM114.068 45.08L115.296 37.7099H118.367C118.827 37.6986 119.286 37.745 119.734 37.848C120.111 37.9158 120.456 38.1044 120.716 38.3855C120.951 38.6942 121.075 39.0726 121.069 39.4603C121.081 39.8779 120.932 40.2842 120.655 40.5965C120.348 40.9269 119.945 41.1525 119.503 41.2414C119.852 41.3163 120.165 41.5106 120.386 41.7908C120.607 42.0711 120.724 42.4198 120.716 42.7768C120.726 43.3446 120.517 43.8944 120.133 44.3123C119.878 44.5519 119.575 44.7346 119.244 44.8484C118.913 44.9623 118.562 45.0046 118.213 44.9725L114.068 45.08ZM116.478 43.4371H117.645C117.772 43.4528 117.9 43.4418 118.021 43.4048C118.143 43.3678 118.256 43.3055 118.352 43.2221C118.469 43.0975 118.535 42.9328 118.536 42.7615C118.543 42.666 118.527 42.5701 118.49 42.482C118.453 42.3938 118.395 42.3159 118.321 42.2548C118.142 42.114 117.919 42.0431 117.691 42.0552H116.77L116.478 43.4371ZM116.97 40.5197H117.814C118.474 40.5197 118.812 40.2894 118.812 39.8441C118.812 39.3988 118.551 39.2607 118.014 39.2607H117.169L116.97 40.5197ZM124.923 45.2642C124.085 45.2739 123.273 44.9668 122.651 44.4044C122.317 44.0926 122.057 43.7103 121.89 43.2853C121.722 42.8603 121.652 42.4033 121.684 41.9477C121.66 40.8046 122.04 39.6898 122.758 38.8C123.097 38.3843 123.526 38.0518 124.013 37.8281C124.5 37.6045 125.032 37.4958 125.568 37.5102C125.991 37.4954 126.413 37.5681 126.807 37.724C127.201 37.8799 127.558 38.1156 127.856 38.4162C128.154 38.7315 128.386 39.103 128.539 39.509C128.692 39.9149 128.762 40.3472 128.747 40.7807C128.778 41.9318 128.403 43.0571 127.687 43.9591C127.358 44.3535 126.944 44.6687 126.476 44.8814C126.008 45.094 125.499 45.1986 124.985 45.1875L124.923 45.2642ZM124.923 43.5445C125.097 43.5545 125.27 43.515 125.422 43.4308C125.574 43.3466 125.699 43.221 125.783 43.0686C126.023 42.6235 126.184 42.1404 126.259 41.6406C126.344 41.2251 126.4 40.8045 126.428 40.3815C126.456 40.0719 126.362 39.7636 126.167 39.5217C126.082 39.4231 125.976 39.3455 125.856 39.2949C125.736 39.2443 125.606 39.2221 125.476 39.2299C124.923 39.2299 124.539 39.6138 124.309 40.3815C124.11 41.0446 124.002 41.7315 123.987 42.4237C124.064 43.0839 124.371 43.4678 125 43.4678L124.923 43.5445ZM136.931 42.2241L138.911 42.4697C138.712 43.2282 138.302 43.9148 137.729 44.4505C137.148 44.9712 136.39 45.2512 135.61 45.2335C135.194 45.2508 134.779 45.1741 134.396 45.0094C134.013 44.8446 133.673 44.5958 133.399 44.2816C132.842 43.6049 132.552 42.747 132.585 41.8709C132.561 40.7639 132.913 39.6814 133.583 38.8C133.906 38.3727 134.327 38.0296 134.811 37.7998C135.295 37.5699 135.827 37.4601 136.362 37.4795C136.747 37.4626 137.13 37.5248 137.489 37.6621C137.849 37.7995 138.176 38.0091 138.451 38.278C138.717 38.5524 138.926 38.8769 139.065 39.2328C139.205 39.5886 139.273 39.9686 139.264 40.3508L137.176 40.5044C137.192 40.1555 137.123 39.8079 136.977 39.491C136.904 39.3801 136.803 39.2905 136.684 39.2311C136.566 39.1718 136.433 39.1449 136.301 39.1532C135.748 39.1532 135.38 39.5677 135.18 40.3662C135.007 40.9926 134.904 41.6363 134.873 42.2855C134.873 43.0378 135.165 43.4217 135.764 43.4217C135.895 43.4236 136.025 43.3987 136.147 43.3485C136.268 43.2984 136.378 43.224 136.47 43.13C136.725 42.8498 136.909 42.5129 137.007 42.1473L136.931 42.2241ZM146.143 45.2949C145.304 45.3046 144.493 44.9975 143.871 44.4351C143.54 44.1219 143.283 43.7389 143.118 43.314C142.953 42.8891 142.885 42.4329 142.919 41.9784C142.888 40.8343 143.27 39.7172 143.994 38.8307C144.319 38.3895 144.745 38.0325 145.237 37.7894C145.728 37.5464 146.271 37.4243 146.819 37.4335C147.242 37.4186 147.664 37.4914 148.057 37.6473C148.451 37.8032 148.808 38.0388 149.107 38.3394C149.404 38.6548 149.637 39.0263 149.789 39.4322C149.942 39.8382 150.013 40.2705 149.997 40.704C150.029 41.855 149.653 42.9804 148.938 43.8823C148.608 44.3012 148.185 44.6373 147.703 44.8639C147.22 45.0905 146.691 45.2013 146.159 45.1875L146.143 45.2949ZM146.143 43.5753C146.317 43.5852 146.49 43.5457 146.642 43.4615C146.794 43.3773 146.919 43.2517 147.003 43.0993C147.249 42.6572 147.411 42.1728 147.479 41.6713C147.571 41.2572 147.628 40.836 147.648 40.4122C147.676 40.1026 147.582 39.7943 147.387 39.5524C147.302 39.4538 147.195 39.3762 147.076 39.3256C146.956 39.275 146.826 39.2528 146.696 39.2607C146.143 39.2607 145.759 39.6445 145.529 40.4122C145.365 41.0441 145.283 41.6942 145.283 42.3469C145.283 43.0839 145.544 43.4678 146.174 43.4678L146.143 43.5753ZM150.504 45.1107L151.732 37.7406H156.231L156.031 39.3221H153.621L152.669 45.0032L150.504 45.1107ZM158.427 42.393L157.966 45.1107H155.863L157.091 37.7406H159.517C159.936 37.7086 160.357 37.7086 160.776 37.7406C161.061 37.8087 161.332 37.9284 161.574 38.0937C161.864 38.2784 162.097 38.5385 162.25 38.8461C162.409 39.155 162.493 39.4968 162.496 39.8441C162.507 40.4978 162.265 41.1305 161.82 41.6099C161.569 41.8625 161.266 42.0578 160.932 42.1824C160.598 42.3069 160.241 42.3578 159.885 42.3315L158.427 42.393ZM158.688 40.8575H159.194C159.962 40.8575 160.361 40.5965 160.361 40.0744C160.361 39.5524 160.024 39.3681 159.379 39.3681H158.933L158.688 40.8575ZM166.181 43.6213H164.246L163.555 45.1568H161.728L165.137 37.7866H167.455L168.591 45.1568H166.411L166.181 43.6213ZM166.043 42.0859L165.751 39.9516L164.783 42.0859H166.043ZM173.981 42.1626H172.092L171.601 45.126H169.467L170.695 37.7559H172.829L172.384 40.4583H174.288L174.749 37.7559H176.883L175.654 45.126H173.52L173.981 42.1626ZM179.355 44.4658L179.247 45.126H177.205L178.434 37.7559H180.599L180.107 40.6272C180.107 41.0571 179.923 41.6099 179.754 42.2855C180.128 41.6616 180.533 41.0569 180.967 40.4737L182.502 38.4469L182.625 37.7559H184.714L183.47 45.126H181.289L181.75 42.3008C181.75 41.8095 181.95 41.2567 182.119 40.5965C181.743 41.2376 181.333 41.8578 180.89 42.4544L179.355 44.4658ZM188.706 45.126L189.151 42.439C188.637 42.8113 188.02 43.0152 187.385 43.0225C186.889 43.0404 186.4 42.9007 185.988 42.6233C185.807 42.4693 185.664 42.2754 185.571 42.057C185.478 41.8385 185.437 41.6013 185.451 41.3642C185.469 40.9936 185.51 40.6244 185.573 40.2587L186.003 37.7559H188.138L187.708 40.2587C187.708 40.5965 187.631 40.8268 187.631 40.9343C187.631 41.0418 187.861 41.3796 188.306 41.3796C188.669 41.3689 189.028 41.2962 189.366 41.1646L189.949 37.7559H192.114L190.871 45.126H188.706ZM198.103 43.4217L197.826 45.126H192.421L193.65 37.7559H199.024L198.763 39.2914H195.523L195.323 40.4429H197.98L197.719 41.9784H195.062L194.847 43.2835L198.103 43.4217ZM203.63 42.0398H201.649L201.158 45.0032H199.024L200.252 37.6331H202.386L201.941 40.3355H203.845L204.306 37.6331H206.44L205.212 45.0032H203.077L203.63 42.0398ZM211.307 42.0398H209.388L208.897 45.0032H206.701L207.929 37.6331H210.064L209.618 40.3355H211.522L211.983 37.6331H214.117L212.889 45.0032H210.739L211.307 42.0398ZM217.971 45.1875C217.137 45.1978 216.33 44.8904 215.714 44.3276C215.38 44.0158 215.12 43.6335 214.953 43.2085C214.786 42.7835 214.715 42.3266 214.747 41.8709C214.716 40.7268 215.098 39.6098 215.822 38.7232C216.16 38.3075 216.589 37.975 217.076 37.7514C217.564 37.5277 218.096 37.419 218.631 37.4335C219.052 37.4207 219.471 37.4945 219.862 37.6504C220.253 37.8062 220.607 38.0407 220.904 38.3394C221.205 38.6527 221.439 39.0239 221.592 39.4303C221.745 39.8368 221.814 40.2701 221.794 40.704C221.826 41.855 221.451 42.9804 220.735 43.8823C220.407 44.2991 219.986 44.6339 219.507 44.8604C219.027 45.0869 218.502 45.1989 217.971 45.1875ZM217.971 43.4678C218.147 43.4753 218.321 43.435 218.475 43.3511C218.629 43.2673 218.757 43.1431 218.846 42.9918C219.087 42.5483 219.243 42.0642 219.307 41.5638C219.402 41.1497 219.464 40.7287 219.491 40.3048C219.512 39.996 219.419 39.6903 219.23 39.4449C219.141 39.3478 219.031 39.2713 218.909 39.2209C218.787 39.1705 218.656 39.1474 218.524 39.1532C217.987 39.1532 217.587 39.537 217.372 40.3048C217.161 40.9655 217.048 41.6534 217.035 42.3469C217.05 43.0839 217.449 43.4678 217.987 43.4678H217.971ZM224.528 44.343L224.42 45.0032H222.332L223.56 37.6331H225.648L225.126 40.5044C225.045 40.9343 224.922 41.487 224.758 42.1626C225.203 41.4563 225.602 40.8575 225.971 40.3508L227.506 38.324L227.614 37.6331H229.733L228.504 45.0032H226.416L226.892 42.178C226.892 41.6867 227.092 41.1339 227.245 40.4737C226.874 41.114 226.469 41.7342 226.032 42.3315L224.528 44.343ZM228.197 35.2071H229.149C228.998 35.6801 228.701 36.0933 228.301 36.3882C227.902 36.6831 227.419 36.8447 226.923 36.85C225.909 36.85 225.387 36.2972 225.265 35.1764H226.186C226.202 35.3937 226.302 35.596 226.466 35.7397C226.63 35.8833 226.844 35.9568 227.061 35.9441C227.299 35.9337 227.53 35.8598 227.73 35.7303C227.929 35.6007 228.091 35.42 228.197 35.2071ZM236.535 45.1875C235.696 45.1971 234.885 44.8901 234.262 44.3276C233.931 44.0144 233.674 43.6315 233.509 43.2065C233.345 42.7816 233.277 42.3254 233.31 41.8709C233.28 40.7268 233.661 39.6098 234.385 38.7232C234.719 38.306 235.145 37.9722 235.63 37.7483C236.115 37.5245 236.646 37.4167 237.18 37.4335C237.603 37.4186 238.025 37.4914 238.418 37.6473C238.812 37.8032 239.169 38.0388 239.467 38.3394C239.765 38.6548 239.997 39.0263 240.15 39.4322C240.303 39.8382 240.374 40.2705 240.358 40.704C240.389 41.855 240.014 42.9804 239.299 43.8823C238.975 44.2929 238.562 44.6239 238.091 44.8501C237.62 45.0763 237.103 45.1917 236.581 45.1875H236.535ZM236.535 43.4678C236.71 43.4753 236.884 43.435 237.038 43.3511C237.193 43.2673 237.321 43.1431 237.41 42.9918C237.643 42.5454 237.799 42.0625 237.871 41.5638C237.963 41.1498 238.019 40.7285 238.039 40.3048C238.067 39.9951 237.974 39.6868 237.778 39.4449C237.694 39.3463 237.587 39.2687 237.467 39.2181C237.347 39.1675 237.217 39.1453 237.088 39.1532C236.535 39.1532 236.151 39.537 235.936 40.3048C235.725 40.9655 235.611 41.6534 235.598 42.3469C235.66 43.0839 235.967 43.4678 236.596 43.4678H236.535ZM244.78 39.3067L243.828 45.0032H241.678L242.646 39.3067H241.11L241.387 37.6177H246.73L246.454 39.3067H244.78ZM246.316 45.0032L247.544 37.6331H250.615C251.074 37.6228 251.533 37.6692 251.981 37.7713C252.335 37.8778 252.647 38.0926 252.872 38.3855C253.106 38.6942 253.231 39.0726 253.225 39.4603C253.234 39.6689 253.201 39.8773 253.127 40.0727C253.053 40.2681 252.94 40.4463 252.795 40.5965C252.497 40.9301 252.098 41.1566 251.659 41.2414C252.008 41.3163 252.32 41.5106 252.542 41.7908C252.763 42.0711 252.88 42.4198 252.872 42.7768C252.882 43.3446 252.673 43.8944 252.288 44.3123C252.031 44.5531 251.726 44.7365 251.392 44.8503C251.059 44.9641 250.705 45.0058 250.354 44.9725L246.316 45.0032ZM248.726 43.3603H249.816C249.943 43.3792 250.072 43.3697 250.194 43.3325C250.316 43.2953 250.428 43.2314 250.523 43.1453C250.586 43.0863 250.636 43.015 250.67 42.9358C250.705 42.8565 250.722 42.7711 250.722 42.6847C250.726 42.5896 250.709 42.4949 250.672 42.4073C250.634 42.3197 250.578 42.2414 250.507 42.178C250.329 42.0372 250.105 41.9663 249.878 41.9784H248.956L248.726 43.3603ZM249.202 40.4429H250.047C250.722 40.4429 251.06 40.2126 251.06 39.7673C251.06 39.3221 250.799 39.1839 250.262 39.1839H249.417L249.202 40.4429ZM259.398 43.2989L259.106 45.0032H253.686L254.914 37.6331H260.211L259.935 39.1685H256.772L256.588 40.3201H259.244L258.968 41.8556H256.327L256.112 43.1607L259.398 43.2989ZM264.296 39.3067L263.512 45.0032H261.378L262.33 39.3067H260.795L261.071 37.6177H266.414L266.123 39.3067H264.296ZM270.437 42.1473L272.403 42.393C272.21 43.1541 271.799 43.8424 271.22 44.3737C270.645 44.9042 269.883 45.1857 269.102 45.1568C268.687 45.1739 268.275 45.0972 267.895 44.9323C267.514 44.7674 267.176 44.5187 266.906 44.2048C266.338 43.5332 266.042 42.6731 266.077 41.7941C266.051 40.6844 266.409 39.5997 267.09 38.7232C267.412 38.295 267.833 37.9512 268.317 37.7212C268.801 37.4912 269.334 37.382 269.869 37.4028C270.251 37.3843 270.633 37.4458 270.99 37.5832C271.347 37.7207 271.671 37.9312 271.942 38.2012C272.211 38.4736 272.422 38.7977 272.562 39.1541C272.702 39.5104 272.768 39.8914 272.756 40.274L270.683 40.4276C270.694 40.0774 270.621 39.7296 270.468 39.4142C270.396 39.3022 270.296 39.2116 270.177 39.1522C270.058 39.0927 269.925 39.0665 269.792 39.0764C269.255 39.0764 268.871 39.491 268.672 40.2894C268.502 40.916 268.404 41.5599 268.38 42.2087C268.38 42.9611 268.672 43.3449 269.255 43.3449C269.387 43.3487 269.518 43.3246 269.639 43.2744C269.761 43.2241 269.871 43.1487 269.961 43.0532C270.245 42.8029 270.47 42.4938 270.622 42.1473H270.437ZM277.331 39.3067L276.38 45.0032H274.261L275.213 39.3067H273.677L273.969 37.6177H279.312L278.867 39.3067H277.331ZM278.867 45.0032L280.095 37.6331H283.166C283.621 37.6226 284.074 37.6691 284.517 37.7713C284.871 37.8778 285.183 38.0926 285.408 38.3855C285.657 38.7001 285.793 39.0897 285.793 39.491C285.793 39.8923 285.657 40.2818 285.408 40.5965C285.101 40.9269 284.698 41.1525 284.256 41.2414C284.606 41.3163 284.918 41.5106 285.139 41.7908C285.361 42.0711 285.477 42.4198 285.469 42.7768C285.485 43.3427 285.281 43.8928 284.901 44.3123C284.642 44.5507 284.337 44.7325 284.003 44.8462C283.67 44.9599 283.317 45.0029 282.967 44.9725L278.867 45.0032ZM281.278 43.3603H282.383C282.509 43.3761 282.637 43.3651 282.759 43.328C282.881 43.291 282.993 43.2287 283.089 43.1453C283.211 43.0222 283.283 42.8578 283.289 42.6847C283.293 42.5896 283.275 42.4949 283.238 42.4073C283.201 42.3197 283.145 42.2414 283.074 42.178C282.889 42.0374 282.661 41.9667 282.429 41.9784H281.508L281.278 43.3603ZM281.769 40.4429H282.613C283.289 40.4429 283.627 40.2126 283.627 39.7673C283.627 39.3221 283.35 39.1839 282.813 39.1839H281.938L281.769 40.4429ZM291.964 43.2989L291.673 45.0032H286.237L287.465 37.6331H292.686L292.425 39.1685H289.262L289.062 40.3201H291.719L291.458 41.8556H288.801L288.586 43.1607L291.964 43.2989ZM297.384 42.0398H295.45L294.958 45.0032H292.824L294.052 37.6331H296.187L295.757 40.3355H297.661L298.121 37.6331H300.256L299.027 45.0032H296.893L297.384 42.0398ZM305.062 42.0398H303.142L302.651 45.0032H300.517L301.745 37.6331H303.879L303.434 40.3355H305.338L305.799 37.6331H308.04L306.812 45.0032H304.678L305.062 42.0398ZM311.725 45.1875C310.891 45.1978 310.084 44.8904 309.468 44.3276C309.135 44.0158 308.874 43.6335 308.707 43.2085C308.54 42.7835 308.469 42.3266 308.501 41.8709C308.47 40.7268 308.852 39.6098 309.576 38.7232C309.914 38.3075 310.343 37.975 310.831 37.7514C311.318 37.5277 311.85 37.419 312.386 37.4335C312.806 37.4207 313.225 37.4945 313.616 37.6504C314.007 37.8062 314.362 38.0407 314.658 38.3394C314.959 38.6527 315.193 39.0239 315.346 39.4303C315.499 39.8368 315.568 40.2701 315.549 40.704C315.58 41.855 315.205 42.9804 314.489 43.8823C314.166 44.2929 313.753 44.6239 313.282 44.8501C312.811 45.0763 312.294 45.1917 311.771 45.1875H311.725ZM311.725 43.4678C311.908 43.4841 312.092 43.4479 312.255 43.3637C312.418 43.2794 312.554 43.1504 312.647 42.9918C312.886 42.5467 313.047 42.0637 313.123 41.5638C313.207 41.1484 313.263 40.7277 313.292 40.3048C313.312 39.996 313.219 39.6903 313.031 39.4449C312.944 39.349 312.837 39.2731 312.717 39.2228C312.598 39.1724 312.469 39.1486 312.34 39.1532C311.787 39.1532 311.403 39.537 311.173 40.3048C310.962 40.9655 310.848 41.6534 310.835 42.3469C310.85 43.0839 311.111 43.4678 311.787 43.4678H311.725ZM320.708 42.1473L322.688 42.393C322.489 43.1514 322.079 43.8381 321.506 44.3737C320.931 44.9042 320.169 45.1857 319.387 45.1568C318.971 45.1729 318.557 45.0958 318.174 44.9311C317.791 44.7663 317.451 44.5182 317.176 44.2048C316.619 43.5281 316.329 42.6703 316.362 41.7941C316.337 40.6844 316.695 39.5997 317.376 38.7232C317.698 38.295 318.119 37.9512 318.603 37.7212C319.087 37.4912 319.62 37.382 320.155 37.4028C320.537 37.3855 320.919 37.4477 321.276 37.5857C321.633 37.7237 321.958 37.9343 322.229 38.2042C322.501 38.4742 322.713 38.7975 322.853 39.1538C322.993 39.5101 323.057 39.8916 323.042 40.274L320.969 40.4276C320.98 40.0774 320.906 39.7296 320.754 39.4142C320.682 39.3022 320.582 39.2116 320.463 39.1522C320.344 39.0927 320.211 39.0665 320.078 39.0764C319.525 39.0764 319.157 39.491 318.957 40.2894C318.788 40.916 318.69 41.5599 318.666 42.2087C318.666 42.9611 318.957 43.3449 319.541 43.3449C319.672 43.3487 319.803 43.3246 319.925 43.2744C320.047 43.2241 320.157 43.1487 320.247 43.0532C320.486 42.7937 320.664 42.4842 320.769 42.1473H320.708ZM327.372 39.3067L326.466 45.0032H324.331L325.283 39.3067H323.748L324.04 37.6177H329.368L329.091 39.3067H327.372ZM328.907 45.0032L330.135 37.6331H332.224L331.794 40.2433H332.853C333.399 40.2188 333.945 40.2916 334.465 40.4583C334.799 40.59 335.076 40.8345 335.248 41.1492C335.428 41.5007 335.517 41.891 335.509 42.2855C335.521 42.9808 335.281 43.6569 334.834 44.1894C334.501 44.4947 334.107 44.7253 333.678 44.8657C333.249 45.006 332.795 45.0529 332.346 45.0032H328.907ZM331.256 43.4678H332.331C332.976 43.4678 333.298 43.1607 333.298 42.5465C333.298 42.0859 333.007 41.8556 332.454 41.8556H331.533L331.256 43.4678ZM339.87 42.1012H338.734L338.227 45.08H336.154L337.383 37.7099H339.471L338.995 40.5351H340.054C340.262 39.6588 340.747 38.8727 341.436 38.2933C342.068 37.7768 342.862 37.4995 343.678 37.5102C344.096 37.4996 344.512 37.5745 344.9 37.7302C345.288 37.886 345.64 38.1194 345.935 38.4162C346.246 38.7388 346.487 39.1222 346.643 39.5423C346.799 39.9624 346.866 40.4101 346.841 40.8575C346.859 41.9737 346.484 43.0607 345.782 43.9284C345.461 44.3504 345.044 44.6902 344.566 44.9198C344.089 45.1494 343.563 45.2621 343.033 45.2489C342.623 45.2614 342.215 45.1918 341.833 45.0441C341.451 44.8964 341.102 44.6737 340.807 44.389C340.515 44.0722 340.291 43.699 340.148 43.2924C340.005 42.8857 339.947 42.4543 339.978 42.0245L339.87 42.1012ZM343.033 43.5445C343.206 43.5509 343.378 43.51 343.529 43.4261C343.681 43.3422 343.806 43.2186 343.893 43.0686C344.133 42.6291 344.294 42.151 344.369 41.6559C344.453 41.2352 344.509 40.8095 344.538 40.3815C344.561 40.0724 344.468 39.7657 344.277 39.5217C344.19 39.4257 344.083 39.3499 343.964 39.2995C343.844 39.2491 343.715 39.2254 343.586 39.2299C343.033 39.2299 342.649 39.6138 342.419 40.3969C342.221 41.055 342.113 41.7367 342.096 42.4237C342.204 43.0839 342.511 43.4678 343.141 43.4678L343.033 43.5445Z" fill="#2C8FC6"/>
</g>
<defs>
<clipPath id="clip0_1220_2">
<rect width="60.8343" height="47.7062" fill="white"/>
</clipPath>
<clipPath id="clip1_1220_2">
<rect width="283.489" height="46.5547" fill="white" transform="translate(68.511)"/>
</clipPath>
</defs>
</svg>
