<?xml version="1.0" encoding="utf-8"?>
<!-- Generator: Adobe Illustrator 26.5.0, SVG Export Plug-In . SVG Version: 6.00 Build 0)  -->
<svg version="1.1" id="Layer_1" xmlns="http://www.w3.org/2000/svg" xmlns:xlink="http://www.w3.org/1999/xlink" x="0px" y="0px"
	 viewBox="0 0 595.28 841.89" style="enable-background:new 0 0 595.28 841.89;" xml:space="preserve">
<style type="text/css">
	.st0{fill:#EF4136;}
</style>
<g>
	<path class="st0" d="M252.38,411.88c4.01-1.52,7.01-3.49,8.96-5.96l-0.57-0.45l0.57,0.45c2.23-2.84,3.32-6.51,3.32-10.92
		c0-2.48-0.5-4.72-1.51-6.67c-1.01-1.95-2.53-3.61-4.52-4.95c-3.96-2.68-9.08-3.99-15.29-3.99c0,0,0,0,0,0
		c-6.5,0-12.06,0.58-16.7,1.76l-0.5,0.13l-0.52,6.34l0.98-0.25c4.71-1.21,10-1.83,15.89-1.83c0.02,0,0.04,0,0.06,0
		c5.79,0,9.89,0.95,12.26,2.66c1.19,0.86,2.07,1.97,2.67,3.38c0.6,1.41,0.91,3.13,0.91,5.16c0,2.68-0.86,5.04-2.61,7.18
		c-1.7,2.08-4.62,3.63-8.86,4.57c-4.27,0.94-8.99,1.41-14.17,1.41h-0.59l-1.2,5.7h0.89c0,0,0,0,0.01,0c4.78,0,8.8,0.16,12.05,0.49
		c3.25,0.32,5.74,0.81,7.43,1.43c3.46,1.27,5.96,3.07,7.58,5.39c1.6,2.3,2.45,5.52,2.45,9.72c0,3.48-0.88,6.56-2.64,9.31
		c-1.76,2.75-4.41,5.17-8,7.25c-7.2,4.18-16.6,6.61-28.2,7.24l-1,0.05l2.28,5.9l0.53-0.03c11.79-0.68,21.99-3.87,30.54-9.61
		c4.29-2.87,7.53-6.12,9.71-9.75c2.18-3.63,3.27-7.64,3.27-11.98c0.01-5.51-1.62-9.95-4.9-13.14
		C260.15,415.11,256.61,413.12,252.38,411.88z"/>
	<path class="st0" d="M310.79,424.54h-1.57c-0.58,1.36-1.26,2.64-2.03,3.85c-1.56,2.46-3.44,4.27-5.65,5.49
		c-2.21,1.21-4.77,1.82-7.71,1.82c-2.69,0-5.12-0.6-7.34-1.81c-2.22-1.21-4.22-3.02-6.02-5.48l-0.58,0.43l0.58-0.43
		c-3.59-4.91-5.4-11.1-5.4-18.64c0-6.18,1.58-11.81,4.74-16.95c1.56-2.54,3.43-4.41,5.61-5.65c2.18-1.24,4.69-1.87,7.57-1.87
		c2.96,0,5.56,0.63,7.85,1.88c2.29,1.25,4.27,3.12,5.97,5.67c1.36,2.04,2.45,4.17,3.26,6.39h1.54h3.78h1.51
		c-1.06-3.78-2.78-7.27-5.15-10.45c-2.16-2.9-4.72-5.09-7.69-6.56c-2.96-1.46-6.3-2.19-10-2.19c0,0,0,0,0,0c0,0,0,0-0.01,0
		c-3.77,0-7.21,0.78-10.28,2.35c-3.07,1.57-5.76,3.93-8.07,7.04l0.58,0.43l-0.58-0.43c-4.59,6.18-6.89,13.27-6.89,21.17
		c0,8.26,2.11,15.39,6.35,21.3c2.13,2.97,4.66,5.23,7.59,6.73c2.93,1.5,6.24,2.25,9.9,2.25c0,0,0,0,0.01,0
		c3.97,0,7.55-0.78,10.7-2.36c3.15-1.58,5.86-3.94,8.11-7.07c1.55-2.15,2.84-4.47,3.85-6.93h-1.57H310.79z M278.65,428.27
		c-1.12-1.68-2.07-3.47-2.81-5.41C276.58,424.8,277.53,426.59,278.65,428.27z M280.4,386.44c-0.32,0.28-0.63,0.56-0.93,0.86
		C279.77,387,280.08,386.71,280.4,386.44z M279.44,387.33c-0.9,0.89-1.76,1.88-2.57,2.97l0,0
		C277.68,389.21,278.54,388.22,279.44,387.33z"/>
	<path class="st0" d="M140.23,403.54c-1.04,0-2.02,0.23-2.94,0.7c-0.92,0.47-1.74,1.15-2.46,2.07h-0.03
		c0.33-1.26,0.73-2.28,1.22-3.08c0.49-0.79,1.1-1.42,1.82-1.89c0.73-0.47,1.72-0.84,2.99-1.09c1.27-0.25,3.55-0.63,6.88-1.11
		l-0.51-4.2c-3.24,0.43-5.59,0.81-7.05,1.11c-1.45,0.31-2.57,0.64-3.35,0.98c-2.46,1.12-4.4,3.16-5.82,6.12
		c-1.42,2.97-2.13,6.24-2.13,9.83c0,2.55,0.58,4.49,1.73,5.82c1.15,1.34,2.82,2,4.99,2c1.85,0,3.5-0.47,4.94-1.4
		c1.44-0.93,2.56-2.28,3.36-4.04c0.8-1.76,1.21-3.71,1.21-5.85c0-1.94-0.42-3.42-1.26-4.45
		C142.96,404.05,141.77,403.54,140.23,403.54z M139.55,413.13c-0.38,1.13-0.89,2.03-1.51,2.68c-0.62,0.66-1.29,0.98-2.01,0.98
		c-1.48,0-2.23-1.22-2.23-3.64c0-0.86,0.13-1.91,0.39-3.16c0.65-0.89,1.34-1.58,2.07-2.07c0.73-0.49,1.39-0.73,2-0.73
		c1.25,0,1.87,0.83,1.87,2.49C140.13,410.84,139.94,411.99,139.55,413.13z"/>
	<path class="st0" d="M157.34,401.96c-0.02,0-0.05,0-0.07,0c-1.93,0.01-3.62,0.51-5.06,1.49c-1.47,0.99-2.59,2.39-3.36,4.2
		c-0.78,1.81-1.16,3.86-1.16,6.17c0,2.11,0.63,3.81,1.9,5.08c1.26,1.27,2.95,1.91,5.07,1.91c0.93,0,1.81-0.11,2.62-0.32
		c0.91-0.24,1.75-0.62,2.51-1.13c1.44-0.97,2.55-2.34,3.31-4.11c0.77-1.77,1.15-3.79,1.15-6.08c0-2.25-0.62-4.01-1.85-5.29
		C161.14,402.6,159.46,401.96,157.34,401.96z M158.76,413.04c-0.36,1.17-0.86,2.09-1.5,2.76c-0.01,0.01-0.02,0.02-0.02,0.02
		c-0.65,0.67-1.38,1-2.19,1c-1.63,0-2.44-1-2.44-3.01c0-1.36,0.2-2.67,0.61-3.95c0.41-1.28,0.93-2.25,1.58-2.91
		c0.64-0.66,1.38-0.99,2.19-0.99c0.1,0,0.19,0,0.28,0.01c1.36,0.13,2.04,1.19,2.04,3.19C159.31,410.56,159.12,411.86,158.76,413.04z
		"/>
	<path class="st0" d="M180.06,401.96c-1.49,0-2.75,0.15-3.79,0.46c-1.04,0.31-1.92,0.78-2.64,1.41c-0.72,0.63-1.39,1.52-1.99,2.66
		c-0.61,1.14-1.46,3.35-2.57,6.64c-0.41,1.2-0.83,2.09-1.26,2.66c-0.43,0.57-0.91,0.85-1.46,0.85c-0.51,0-0.96-0.09-1.37-0.26v4.03
		c0.65,0.26,1.46,0.39,2.42,0.39c1.04,0,1.91-0.21,2.61-0.63c0.7-0.42,1.3-1,1.79-1.73c0.49-0.73,0.92-1.59,1.28-2.57
		c0.36-0.98,0.73-2.03,1.12-3.15c0.78-2.32,1.37-3.86,1.77-4.61c0.4-0.75,0.85-1.3,1.34-1.64c0.49-0.34,1.1-0.51,1.82-0.51
		c0.25,0,0.59,0.04,1.03,0.13l-3.06,14.4h4.9l3.69-17.59c-0.75-0.29-1.64-0.52-2.67-0.69C181.99,402.04,181,401.96,180.06,401.96z"
		/>
	<path class="st0" d="M197.56,401.96c-1.93,0-3.66,0.49-5.19,1.46c-1.53,0.97-2.74,2.38-3.64,4.23c-0.89,1.85-1.34,3.9-1.34,6.14
		c0,2.23,0.63,3.96,1.89,5.19c1.26,1.23,3.02,1.84,5.3,1.84c2.36,0,4.48-0.47,6.34-1.4v-3.69c-1.1,0.52-2.03,0.88-2.8,1.09
		c-0.77,0.21-1.63,0.31-2.57,0.31c-1.04,0-1.84-0.28-2.4-0.85c-0.56-0.57-0.84-1.35-0.84-2.34v-0.33l0.03-0.34h0.83
		c3.36,0,5.95-0.55,7.76-1.65c1.81-1.1,2.71-2.67,2.71-4.69c0-1.54-0.53-2.75-1.61-3.64C200.98,402.4,199.48,401.96,197.56,401.96z
		 M197.55,409.17c-0.94,0.53-2.25,0.79-3.93,0.79h-0.73c0.26-1.25,0.81-2.3,1.66-3.17c0.85-0.87,1.74-1.3,2.7-1.3
		c1.14,0,1.71,0.51,1.71,1.54C198.96,407.93,198.49,408.65,197.55,409.17z"/>
	<path class="st0" d="M220.25,403.28c-1.07-0.88-2.57-1.33-4.49-1.33c-1.93,0-3.66,0.49-5.19,1.46c-1.53,0.97-2.74,2.38-3.64,4.23
		c-0.89,1.85-1.34,3.9-1.34,6.14c0,2.23,0.63,3.96,1.89,5.19c1.26,1.23,3.02,1.84,5.3,1.84c2.36,0,4.48-0.47,6.34-1.4v-3.69
		c-1.1,0.52-2.03,0.88-2.8,1.09c-0.77,0.21-1.63,0.31-2.57,0.31c-1.04,0-1.84-0.28-2.4-0.85c-0.56-0.57-0.84-1.35-0.84-2.34v-0.33
		l0.03-0.34h0.83c3.36,0,5.95-0.55,7.76-1.65c1.81-1.1,2.71-2.67,2.71-4.69C221.85,405.38,221.32,404.17,220.25,403.28z
		 M215.75,409.17c-0.94,0.53-2.25,0.79-3.93,0.79h-0.73c0.26-1.25,0.82-2.3,1.66-3.17c0.85-0.87,1.74-1.3,2.7-1.3
		c1.14,0,1.71,0.51,1.71,1.54C217.15,407.93,216.69,408.65,215.75,409.17z"/>
	<path class="st0" d="M317.88,402.21c-1.03-0.17-2.02-0.25-2.96-0.25c-1.49,0-2.75,0.15-3.79,0.46c-1.04,0.31-1.92,0.78-2.65,1.41
		c-0.72,0.63-1.39,1.52-1.99,2.66c-0.61,1.14-1.46,3.35-2.57,6.64c-0.41,1.2-0.83,2.09-1.26,2.66c-0.43,0.57-0.91,0.85-1.46,0.85
		c-0.51,0-0.96-0.09-1.37-0.26v4.03c0.65,0.26,1.46,0.39,2.42,0.39c1.04,0,1.91-0.21,2.61-0.63c0.7-0.42,1.3-1,1.79-1.73
		c0.49-0.73,0.92-1.59,1.28-2.57c0.36-0.98,0.74-2.03,1.12-3.15c0.78-2.32,1.37-3.86,1.77-4.61c0.4-0.75,0.85-1.3,1.33-1.64
		c0.49-0.34,1.1-0.51,1.82-0.51c0.25,0,0.59,0.04,1.03,0.13l-3.06,14.4h4.9l3.69-17.59C319.79,402.61,318.91,402.38,317.88,402.21z"
		/>
	<path class="st0" d="M332.42,401.96c-1.93,0-3.66,0.49-5.19,1.46c-1.53,0.97-2.74,2.38-3.64,4.23c-0.89,1.85-1.34,3.9-1.34,6.14
		c0,2.23,0.63,3.96,1.89,5.19c1.26,1.23,3.02,1.84,5.3,1.84c2.36,0,4.48-0.47,6.34-1.4v-3.69c-1.1,0.52-2.03,0.88-2.8,1.09
		c-0.77,0.21-1.63,0.31-2.57,0.31c-1.04,0-1.84-0.28-2.4-0.85c-0.56-0.57-0.84-1.35-0.84-2.34v-0.33l0.03-0.34h0.83
		c3.36,0,5.95-0.55,7.76-1.65c1.81-1.1,2.71-2.67,2.71-4.69c0-1.54-0.53-2.75-1.61-3.64C335.83,402.4,334.34,401.96,332.42,401.96z
		 M332.41,409.17c-0.94,0.53-2.25,0.79-3.93,0.79h-0.73c0.26-1.25,0.82-2.3,1.66-3.17c0.85-0.87,1.74-1.3,2.7-1.3
		c1.14,0,1.71,0.51,1.71,1.54C333.81,407.93,333.35,408.65,332.41,409.17z"/>
	<path class="st0" d="M360.02,420.49h4.9l2.16-10.36c0.25-1.13,0.37-2.1,0.37-2.93c0-1.65-0.39-2.93-1.16-3.86
		c-0.78-0.92-1.9-1.38-3.38-1.38c-1.14,0-2.21,0.32-3.21,0.96c-1.01,0.64-1.88,1.56-2.61,2.75H357c-0.47-2.47-1.89-3.71-4.26-3.71
		c-2.27,0-4.19,1.24-5.78,3.71h-0.1l0.34-3.37h-3.74l-3.86,18.19h4.9l1.59-7.53c0.46-2.21,1.11-3.94,1.92-5.17
		c0.82-1.24,1.72-1.85,2.72-1.85c1.06,0,1.59,0.67,1.59,2c0,0.55-0.09,1.2-0.26,1.94l-2.23,10.62h4.9l1.56-7.57
		c0.48-2.23,1.12-3.96,1.93-5.17c0.81-1.21,1.71-1.82,2.71-1.82c1.06,0,1.59,0.67,1.59,2c0,0.55-0.09,1.2-0.26,1.94L360.02,420.49z"
		/>
	<polygon class="st0" points="330.91,435.05 325.23,435.05 326.74,428.05 321.79,428.05 317.91,446.24 322.83,446.24 324.43,438.74 
		330.06,438.74 328.5,446.24 333.4,446.24 337.26,428.05 332.37,428.05 	"/>
	<path class="st0" d="M351.95,430.38h-0.13c-0.42-0.87-1.02-1.53-1.78-1.98c-0.77-0.45-1.67-0.68-2.73-0.68
		c-1.52,0-2.91,0.53-4.18,1.6c-1.27,1.07-2.3,2.58-3.08,4.52c-0.78,1.95-1.17,3.99-1.17,6.14c0,2.08,0.46,3.7,1.38,4.86
		c0.92,1.16,2.17,1.73,3.77,1.73c2.01,0,3.74-0.89,5.19-2.69h0.07l-0.23,2.36h3.72l3.87-18.19h-3.77L351.95,430.38z M349.79,438.57
		c-0.42,1.24-0.98,2.23-1.67,2.95c-0.69,0.73-1.42,1.09-2.16,1.09c-0.67,0-1.19-0.24-1.55-0.72c-0.36-0.48-0.55-1.19-0.55-2.15
		c0-1.26,0.2-2.53,0.6-3.81c0.39-1.28,0.93-2.31,1.59-3.09c0.67-0.78,1.37-1.17,2.11-1.17c0.68,0,1.23,0.25,1.65,0.76
		c0.42,0.5,0.63,1.14,0.63,1.91C350.42,435.92,350.21,437.33,349.79,438.57z"/>
	<path class="st0" d="M377.77,427.71c-1.94,0-3.66,1.04-5.16,3.11h-0.15l0.28-2.77H369l-5.56,26.19h4.9l1.17-5.53
		c0.34-1.47,0.57-3.07,0.7-4.8h0.13c0.55,0.96,1.16,1.65,1.81,2.05c0.65,0.4,1.43,0.6,2.33,0.6c1.55,0,2.97-0.56,4.26-1.69
		c1.29-1.12,2.31-2.64,3.05-4.55c0.75-1.91,1.12-3.91,1.12-5.98c0-2.09-0.46-3.72-1.38-4.89
		C380.6,428.3,379.35,427.71,377.77,427.71z M377.32,438.41c-0.41,1.31-0.94,2.34-1.6,3.08c-0.66,0.75-1.36,1.12-2.08,1.12
		c-0.7,0-1.26-0.26-1.66-0.78c-0.4-0.52-0.6-1.22-0.6-2.08c0-1.48,0.21-2.82,0.62-4.04c0.42-1.22,0.97-2.2,1.66-2.93
		c0.69-0.73,1.4-1.1,2.14-1.1c1.42,0,2.13,0.96,2.13,2.86C377.93,435.82,377.73,437.1,377.32,438.41z"/>
	<path class="st0" d="M394.83,435.08c-1.14,0-2.24,0.12-3.3,0.36l1.59-7.39h-4.9l-2.2,10.15c-0.25,1.11-0.37,2.13-0.37,3.08
		c0,3.52,2.12,5.29,6.34,5.29c1.65,0,3.07-0.28,4.26-0.85c1.19-0.56,2.1-1.34,2.73-2.34c0.62-1,0.93-2.15,0.93-3.46
		c0-1.44-0.47-2.61-1.42-3.5C397.56,435.53,396.33,435.08,394.83,435.08z M394.3,442.4c-0.48,0.5-1.12,0.76-1.91,0.76
		c-0.56,0-1.02-0.17-1.35-0.5c-0.34-0.34-0.5-0.83-0.5-1.5c0-0.26,0.01-0.53,0.04-0.82c0.03-0.29,0.12-0.79,0.28-1.52
		c0.8-0.19,1.51-0.29,2.13-0.29c1.36,0,2.03,0.65,2.03,1.94C395.02,441.24,394.78,441.89,394.3,442.4z"/>
	<polygon class="st0" points="401.35,446.24 406.25,446.24 410.12,428.05 405.22,428.05 	"/>
	<polygon class="st0" points="424.07,435.05 418.39,435.05 419.91,428.05 414.96,428.05 411.08,446.24 416,446.24 417.6,438.74 
		423.23,438.74 421.66,446.24 426.56,446.24 430.43,428.05 425.54,428.05 	"/>
	<polygon class="st0" points="451.14,428.05 445.54,428.05 438.38,436.51 440.19,428.05 435.28,428.05 431.39,446.24 436.29,446.24 
		438.19,437.38 442.35,446.24 447.85,446.24 443.34,437.18 	"/>
	<path class="st0" d="M465.39,429.04c-1.08-0.88-2.57-1.33-4.49-1.33c-1.93,0-3.66,0.49-5.19,1.46c-1.53,0.97-2.74,2.38-3.64,4.23
		c-0.89,1.85-1.34,3.9-1.34,6.14c0,2.23,0.63,3.96,1.89,5.19c1.25,1.23,3.02,1.84,5.3,1.84c2.37,0,4.48-0.47,6.34-1.4v-3.69
		c-1.1,0.52-2.03,0.88-2.8,1.09c-0.77,0.21-1.63,0.31-2.57,0.31c-1.04,0-1.84-0.28-2.4-0.85c-0.56-0.57-0.84-1.35-0.84-2.34v-0.33
		l0.03-0.34h0.83c3.36,0,5.95-0.55,7.76-1.65c1.81-1.1,2.71-2.67,2.71-4.69C467,431.13,466.47,429.92,465.39,429.04z M460.89,434.93
		c-0.94,0.53-2.25,0.79-3.93,0.79h-0.73c0.26-1.25,0.81-2.3,1.66-3.17c0.85-0.87,1.74-1.3,2.7-1.3c1.14,0,1.71,0.51,1.71,1.54
		C462.3,433.69,461.83,434.4,460.89,434.93z"/>
</g>
</svg>
